<svg xmlns="http://www.w3.org/2000/svg" height="227" width="591" version="1.1">
 <defs>
  <filter id="f" style="color-interpolation-filters:sRGB;">
   <feGaussianBlur in="SourceAlpha" stdDeviation="2.5"/>
   <feOffset dx="3.75" dy="3.75" result="offsetblur"/>
   <feFlood flood-color="rgb(0,0,0)" flood-opacity="0.8"/>
   <feComposite in2="offsetblur" operator="in"/>
   <feMerge>
    <feMergeNode/>
    <feMergeNode in="SourceGraphic"/>
   </feMerge>
  </filter>
 </defs>
 <g filter="url(#f)" fill="#0093dd">
  <path d="m119.86,8.45-8.5625,18.562-18.188,0c-2.4167,0.00007-4.3334,0.54173-5.75,1.625-1.375,1.0417-2.0625,2.4584-2.0625,4.25-0.00004,2.5834,3.125,4.6459,9.375,6.1875,1.2916,0.33339,2.2708,0.58339,2.9375,0.75,4.4583,1.1667,7.9374,3.5209,10.438,7.0625,2.4999,3.5,3.7499,7.8125,3.75,12.938-0.00007,3.8334-0.81257,7.6667-2.4375,11.5-1.6251,3.7917-3.7917,7.0417-6.5,9.75-2.5417,2.4167-5.1876,4.4375-7.9375,6.0625-2.7084,1.5833-5.9584,3-9.75,4.25-1.625,0.5-4.1459,0.89583-7.5625,1.1875-3.4167,0.25-7.5,0.375-12.25,0.375h-36.875l8.4375-18.562h27.875c4.0833,0.00002,7.2708-0.22915,9.5625-0.6875,2.3333-0.45831,4.2291-1.2083,5.6875-2.25,1.9166-1.375,3.3958-2.9583,4.4375-4.75,1.0416-1.8333,1.5625-3.6666,1.5625-5.5-0.00004-2.9166-2.375-5.125-7.125-6.625-1.0417-0.33329-1.875-0.60413-2.5-0.8125-5.25-1.8333-9-4.1666-11.25-7-2.2084-2.8333-3.3125-6.6874-3.3125-11.562-0.00002-7.8333,2.4166-14.25,7.25-19.25,4.8333-4.9999,11.083-7.4999,18.75-7.5h32"/>
  <path d="m178.2,27.012-61.911,0,8.4375-18.562,55.173,0-8.4375,18.562m-18.32,12.813-24.06,53.125h-24.5l24.062-53.125h24.5"/>
  <path d="m185.02,8.45,40.188,0c2.9166,0.00009,5.2082,0.77092,6.875,2.3125,1.7082,1.5418,2.5624,3.6459,2.5625,6.3125-0.00008,0.70841-0.0417,1.3751-0.125,2-0.0834,0.62507-0.20842,1.2292-0.375,1.8125l-21,72.062h-80.625l44.062-53.125h25.188l-26.25,34.562h18.188l13.438-43c-0.00006-0.0416,0.0208-0.1041,0.0625-0.1875,0.12494-0.5416,0.18744-0.99994,0.1875-1.375-0.00006-0.83327-0.31256-1.4999-0.9375-2-0.62506-0.5416-1.4584-0.81243-2.5-0.8125h-27.125l8.18-18.56"/>
  <path d="m269.56,63.388c0.12496-0.24997,0.20829-0.5208,0.25-0.8125,0.0833-0.29164,0.12496-0.5833,0.125-0.875-0.00004-1.0833-0.43754-2-1.3125-2.75-0.83337-0.79163-1.8959-1.1875-3.1875-1.1875h-6.125l-16.25,35.188h-24.438l23.938-52.5h37.75l3.4375-8.0625c0.12494-0.29161,0.20828-0.58327,0.25-0.875,0.0833-0.33327,0.12494-0.6666,0.125-1-0.00006-1.0833-0.41672-1.9791-1.25-2.6875-0.79172-0.70827-1.8542-1.0624-3.1875-1.0625h-31l8.3125-18.312h44.312c3.7499,0.00009,6.6874,0.83342,8.8125,2.5,2.1249,1.6668,3.1874,3.9584,3.1875,6.875-0.00009,0.75008-0.12509,1.5626-0.375,2.4375-0.20842,0.87507-0.54175,1.8126-1,2.8125l-12.94,28.684c-1.1251,2.4167-2.5209,4.125-4.1875,5.125-1.6667,1-3.9792,1.5-6.9375,1.5h-0.8125c1.4583,0.9167,2.5416,2.0209,3.25,3.3125,0.74994,1.25,1.1249,2.6667,1.125,4.25-0.00006,0.75003-0.12506,1.6042-0.375,2.5625-0.25006,0.91669-0.60423,1.8542-1.0625,2.8125l-9.8125,21.625h-23.812l13.188-29.562"/>
  <path d="m337.02,106.11-23.061,54.514-23.481,0,23.061-54.514,23.481,0m18.325-11.424-65.821,0,7.0089-18.562,66.745,0-7.9324,18.562"/>
  <path d="m385.53,130.81c0.12496-0.24997,0.2083-0.5208,0.25-0.8125,0.0833-0.29164,0.12496-0.5833,0.125-0.875-0.00004-1.0833-0.43754-2-1.3125-2.75-0.83337-0.79163-1.8959-1.1875-3.1875-1.1875h-6.125l-16.25,35.188h-24.438l23.938-52.5h37.75l3.4375-8.0625c0.12495-0.29161,0.20828-0.58327,0.25-0.875,0.0833-0.33327,0.12495-0.6666,0.125-1-0.00005-1.0833-0.41672-1.9791-1.25-2.6875-0.79172-0.70827-1.8542-1.0624-3.1875-1.0625h-31l8.3125-18.312h44.312c3.7499,0.00008,6.6874,0.83342,8.8125,2.5,2.1249,1.6668,3.1874,3.9584,3.1875,6.875-0.00008,0.75007-0.12508,1.5626-0.375,2.4375-0.20841,0.87507-0.54175,1.8126-1,2.8125l-12.938,28.688c-1.1251,2.4167-2.5209,4.125-4.1875,5.125-1.6667,1-3.9792,1.5-6.9375,1.5h-0.8125c1.4583,0.9167,2.5416,2.0209,3.25,3.3125,0.74994,1.25,1.1249,2.6667,1.125,4.25-0.00006,0.75003-0.12506,1.6042-0.375,2.5625-0.25006,0.91669-0.60423,1.8542-1.0625,2.8125l-9.8125,21.625h-23.812l13.188-29.562"/>
  <path d="m491.41,76.123-8.4375,18.562-45.938,0,8.4375-18.562,45.938,0m-84.312,84.5,24.188-53.125,45.938,0-8.4375,18.562-21.5,0-7.3125,16,21.5,0-8.4375,18.562-45.938,0"/>
  <path d="m516.97,94.311,10.5-10.5c3.375-3.2916,6.3541-5.3958,8.9375-6.3125,2.5833-0.91658,5.8749-1.3749,9.875-1.375h17.375l-8.4375,18.562h-62.188l8.4375-18.562h24.438l-8.9375,18.188m-29.812,13.188,27.375,0c3.625,0.00005,6.8958,1.1042,9.8125,3.3125,2.9583,2.2084,5.5416,5.5,7.75,9.875l19.688,39.938h-24.312l-12.688-27.375c-0.0417-0.12497-0.12504-0.31247-0.25-0.5625-2.0834-4.4166-4.8125-6.625-8.1875-6.625h-3.0625l-15.75,34.562h-24.438l24.062-53.125"/>
 </g>
 <g style="letter-spacing:4.63000011px;word-spacing:0px;" font-weight="normal" font-size="40px" font-style="normal" font-stretch="normal" line-height="125%" font-variant="normal" font-family="StarTrekGen Hv BT" fill="#0093dd">
  <path d="m51.015,194.26-11.25,24.727-11.039,0,11.25-24.727-8.1562,0,3.1641-6.9609,26.391,0-3.1641,6.9609-7.1953,0"/>
  <path d="m90.671,187.3-14.391,31.688-11.039,0,5.8828-12.961-4.7812,0-5.9062,12.961-11.039,0,14.391-31.688,11.039,0-5.3203,11.766,4.8047,0,5.3203-11.766,11.039,0"/>
  <path d="m115.61,187.3-3.1641,6.9609-8.0625,0-2.1562,4.8047,8.0625,0-3.1641,6.9609-8.0625,0-2.7422,6,8.0625,0-3.1641,6.9609-19.102,0,14.391-31.688,19.102,0"/>
  <path d="m166.94,192.78-11.883,26.203-11.039,0,10.266-22.617c0.0469-0.12498,0.0781-0.24217,0.0937-0.35157,0.0312-0.12497,0.0469-0.24216,0.0469-0.35156-0.00002-0.4531-0.14846-0.79685-0.44531-1.0312-0.28127-0.24997-0.69534-0.37497-1.2422-0.375h-2.2969l-11.227,24.727h-11.039l14.391-31.688h20.391c1.4062,0.00004,2.5078,0.31254,3.3047,0.9375,0.81246,0.62503,1.2187,1.4844,1.2188,2.5781-0.00004,0.26565-0.0469,0.57034-0.14063,0.91406-0.0938,0.32815-0.2266,0.67972-0.39844,1.0547"/>
  <path d="m194.39,187.3-3.1641,6.9609-8.0625,0-2.1562,4.8047,8.0625,0-3.1641,6.9609-8.0625,0-2.7422,6,8.0625,0-3.1641,6.9609-19.102,0,14.391-31.688,19.102,0"/>
  <path d="m203.3,210.55-4.5469,5.0391c-1.1406,1.25-2.3359,2.1328-3.5859,2.6484-1.2344,0.5-2.9688,0.75-5.2031,0.75h-7.1953l3.1641-6.9609h1.5469c1.0156,0,1.8438-0.125,2.4844-0.375,0.64062-0.26562,1.2969-0.75,1.9688-1.4531l8.3906-8.5312-4.7344-14.367h10.359l2.0625,6.4453,3.5625-4.0312c0.74998-0.85935,1.5859-1.4765,2.5078-1.8516,0.93747-0.37496,2.1015-0.56246,3.4922-0.5625h8.3906l-3.1641,6.9609h-0.86719c-0.96878,0.00003-1.7813,0.13284-2.4375,0.39844-0.64065,0.26565-1.2969,0.74221-1.9688,1.4297l-6.5391,6.5859,5.3672,16.312h-10.359l-2.6953-8.4375"/>
  <path d="m244.45,194.26-11.25,24.727-11.039,0,11.25-24.727-8.1562,0,3.1641-6.9609,26.391,0-3.1641,6.9609-7.1953,0"/>
  <path d="m303.55,199.06-6.9141,15.305c-0.78128,1.7344-1.7656,2.9375-2.9531,3.6094-1.1719,0.67188-3.0078,1.0078-5.5078,1.0078h-14.062c-1.3906,0-2.4844-0.30468-3.2812-0.91406-0.8125-0.625-1.2188-1.4688-1.2188-2.5312,0-0.31249,0.0469-0.63281,0.14062-0.96094,0.0781-0.34374,0.20313-0.6953,0.375-1.0547l9.7969-21.609c0.79687-1.7343,1.7734-2.9375,2.9297-3.6094,1.1562-0.67185,2.9922-1.0078,5.5078-1.0078h14.062c1.4062,0.00004,2.5078,0.31254,3.3047,0.9375,0.81246,0.62503,1.2187,1.4844,1.2188,2.5781-0.00004,0.26565-0.0469,0.57034-0.14063,0.91406-0.0938,0.32815-0.2266,0.67972-0.39844,1.0547l-0.65625,1.4766h-13.547c-0.7969,0.00003-1.4531,0.16409-1.9688,0.49219-0.51564,0.32815-0.92971,0.83596-1.2422,1.5234l-6.0938,13.688c-0.0625,0.12501-0.10938,0.25001-0.14062,0.375-0.0313,0.12501-0.0469,0.25782-0.0469,0.39843-0.00001,0.40626,0.17187,0.72657,0.51563,0.96094,0.34373,0.21876,0.82811,0.32813,1.4531,0.32813,0.79686,0,1.4453-0.15625,1.9453-0.46875,0.51561-0.32812,0.93749-0.84375,1.2656-1.5469l1.8281-3.9844h-2.6484l3.1641-6.9609h13.312"/>
  <path d="m333.86,187.3-3.1641,6.9609-8.0625,0-2.1562,4.8047,8.0625,0-3.1641,6.9609-8.0625,0-2.7422,6,8.0625,0-3.1641,6.9609-19.102,0,14.391-31.688,19.102,0"/>
  <path d="m363.88,192.78-11.883,26.203-11.039,0,10.266-22.617c0.0469-0.12498,0.0781-0.24217,0.0937-0.35157,0.0312-0.12497,0.0469-0.24216,0.0469-0.35156-0.00002-0.4531-0.14846-0.79685-0.44531-1.0312-0.28127-0.24997-0.69534-0.37497-1.2422-0.375h-2.2969l-11.227,24.727h-11.039l14.391-31.688h20.391c1.4062,0.00004,2.5078,0.31254,3.3047,0.9375,0.81246,0.62503,1.2187,1.4844,1.2188,2.5781-0.00004,0.26565-0.0469,0.57034-0.14063,0.91406-0.0938,0.32815-0.2266,0.67972-0.39844,1.0547"/>
  <path d="m391.33,187.3-3.1641,6.9609-8.0625,0-2.1562,4.8047,8.0625,0-3.1641,6.9609-8.0625,0-2.7422,6,8.0625,0-3.1641,6.9609-19.102,0,14.391-31.688,19.102,0"/>
  <path d="m403.8,208.13c0.0469-0.0937,0.0781-0.18749,0.0937-0.28125,0.0312-0.10936,0.0469-0.21874,0.0469-0.32812-0.00002-0.42187-0.16408-0.77343-0.49219-1.0547-0.31251-0.29686-0.71095-0.4453-1.1953-0.44531h-2.8828l-5.8828,12.961h-10.898l14.391-31.688h20.391c1.4062,0.00004,2.5078,0.31254,3.3047,0.9375,0.81246,0.62503,1.2187,1.4844,1.2188,2.5781-0.00004,0.28128-0.0469,0.58596-0.14063,0.91406-0.0782,0.32815-0.21097,0.67972-0.39844,1.0547l-4.8281,10.758c-0.43753,0.90627-0.96878,1.5469-1.5938,1.9219-0.6094,0.37501-1.4766,0.56251-2.6016,0.5625h-0.28125c0.54685,0.34376,0.9531,0.75782,1.2188,1.2422,0.28122,0.46877,0.42184,1,0.42187,1.5938-0.00003,0.28126-0.0469,0.60158-0.14062,0.96094-0.0938,0.34376-0.22659,0.69532-0.39844,1.0547l-3.6797,8.1094h-10.477l4.8047-10.852m-1.3359-8.7422,5.4141,0,1.2422-3.0938c0.0469-0.12497,0.0781-0.24216,0.0937-0.35156,0.0312-0.12498,0.0469-0.24998,0.0469-0.375-0.00002-0.42185-0.15627-0.75779-0.46875-1.0078-0.29689-0.2656-0.69533-0.39841-1.1953-0.39844h-2.8359l-2.2969,5.2266"/>
  <path d="m433.26,187.3,16.945,0c1.0937,0.00004,1.9609,0.29691,2.6016,0.89063,0.65622,0.57815,0.98434,1.3594,0.98437,2.3438-0.00003,0.21878-0.0235,0.44534-0.0703,0.67969-0.0313,0.2344-0.086,0.4844-0.16406,0.75l-7.8281,27.023h-34.031l16.523-19.922h11.367l-9.8906,12.961h6.8672l4.9922-16.125c-0.00002-0.0156,0.008-0.0469,0.0234-0.0937,0.0469-0.18748,0.0703-0.35154,0.0703-0.49219-0.00002-0.31248-0.11721-0.56248-0.35156-0.75-0.2344-0.2031-0.5469-0.30466-0.9375-0.30469h-10.172l3.0703-6.9609"/>
  <path d="m475.26,194.26-11.25,24.727-11.039,0,11.25-24.727-8.1562,0,3.1641-6.9609,26.391,0-3.1641,6.9609-7.1953,0"/>
  <path d="m499.08,187.3-14.391,31.688-11.039,0,14.391-31.688,11.039,0"/>
  <path d="m516.54,196.37c0.0781-0.20311,0.12498-0.35154,0.14063-0.44532,0.0312-0.0937,0.0468-0.17966,0.0469-0.25781-0.00002-0.42185-0.16408-0.75779-0.49218-1.0078-0.32815-0.2656-0.77346-0.39841-1.3359-0.39844-0.71877,0.00003-1.3438,0.1719-1.875,0.51563-0.51564,0.34377-0.92971,0.84377-1.2422,1.5l-6.0938,13.547c-0.0625,0.12501-0.10938,0.25782-0.14062,0.39844-0.0313,0.14063-0.0469,0.29688-0.0469,0.46875-0.00001,0.42188,0.17187,0.75001,0.51563,0.98437,0.34373,0.23439,0.84373,0.35157,1.5,0.35157,0.64061,0,1.1875-0.16406,1.6406-0.49219,0.46874-0.32812,0.86717-0.83593,1.1953-1.5234l6.1875-13.641m12.656-3.5859-9.7734,21.586c-0.78128,1.75-1.7578,2.9609-2.9297,3.6328-1.1719,0.65625-3.0156,0.98437-5.5312,0.98437h-14.062c-1.3906,0-2.4844-0.30468-3.2812-0.91406-0.8125-0.625-1.2188-1.4688-1.2188-2.5312,0-0.26562,0.0469-0.56249,0.14062-0.89062,0.0938-0.34375,0.23438-0.71875,0.42188-1.125l9.75-21.609c0.79687-1.7343,1.7734-2.9375,2.9297-3.6094,1.1562-0.67185,2.9922-1.0078,5.5078-1.0078h14.062c1.4062,0.00004,2.5156,0.31254,3.3281,0.9375,0.82809,0.62503,1.2422,1.4688,1.2422,2.5312-0.00003,0.26566-0.0469,0.57034-0.14062,0.91407-0.0938,0.32815-0.24223,0.69534-0.44532,1.1016"/>
  <path d="m561.91,192.78-11.883,26.203-11.039,0,10.266-22.617c0.0469-0.12498,0.0781-0.24217,0.0937-0.35157,0.0312-0.12497,0.0469-0.24216,0.0469-0.35156-0.00002-0.4531-0.14846-0.79685-0.44531-1.0312-0.28127-0.24997-0.69534-0.37497-1.2422-0.375h-2.2969l-11.227,24.727h-11.039l14.391-31.688h20.391c1.4062,0.00004,2.5078,0.31254,3.3047,0.9375,0.81246,0.62503,1.2187,1.4844,1.2188,2.5781-0.00004,0.26565-0.0469,0.57034-0.14063,0.91406-0.0938,0.32815-0.2266,0.67972-0.39844,1.0547"/>
 </g>
</svg>